name rise36.2859peak64.2979fall75.1499.mot
datacolumns 19
datarows 11
range 2.50498900000000 2.52165900000000
endheader
time	ground_force1_vx	ground_force1_vy	ground_force1_vz	ground_force1_px	ground_force1_py	ground_force1_pz	ground_force2_vx	ground_force2_vy	ground_force2_vz	ground_force2_px	ground_force2_py	ground_force2_pz	ground_torque1_x	ground_torque1_y	ground_torque1_z	ground_torque2_x	ground_torque2_y	ground_torque2_z	
2.50498900000000	-53.02787000000000	794.70187499999997	53.46096800000000	0.18459600000000	0.00000000000000	0.09553400000000	-8.31002900000000	40.54726100000000	6.01877100000000	0.42309400000000	0.00000000000000	-0.07240300000000	0.00000000000000	28.31337900000000	0.00000000000000	0.00000000000000	4.30186600000000	0.00000000000000	
2.50665400000000	-53.27943000000000	791.62576899999999	53.19891200000000	0.18392000000000	0.00000000000000	0.09554200000000	-9.16658100000000	47.20177700000000	6.81288200000000	0.42585000000000	0.00000000000000	-0.07281100000000	0.00000000000000	28.16947900000000	0.00000000000000	0.00000000000000	4.91822000000000	0.00000000000000	
2.50832400000000	-53.54441800000000	788.44378900000004	52.91668000000000	0.18323600000000	0.00000000000000	0.09554500000000	-9.88191800000000	53.85717300000000	7.55023300000000	0.42835700000000	0.00000000000000	-0.07320000000000	0.00000000000000	28.02212800000000	0.00000000000000	0.00000000000000	5.50491500000000	0.00000000000000	
2.50998700000000	-53.82302600000000	785.15668200000005	52.61429100000000	0.18254500000000	0.00000000000000	0.09554300000000	-10.43421700000000	60.42179700000000	8.21479700000000	0.43065500000000	0.00000000000000	-0.07357000000000	0.00000000000000	27.87139900000000	0.00000000000000	0.00000000000000	6.04999700000000	0.00000000000000	
2.51166000000000	-54.11537800000000	781.76517100000001	52.29178800000000	0.18184800000000	0.00000000000000	0.09553700000000	-10.81049500000000	66.82872399999999	8.79553200000000	0.43277400000000	0.00000000000000	-0.07392400000000	0.00000000000000	27.71736600000000	0.00000000000000	0.00000000000000	6.54484300000000	0.00000000000000	
2.51332700000000	-54.42153600000000	778.26995299999999	51.94924200000000	0.18114400000000	0.00000000000000	0.09552600000000	-11.00649000000000	73.03753100000000	9.28649800000000	0.43474200000000	0.00000000000000	-0.07426400000000	0.00000000000000	27.56009900000000	0.00000000000000	0.00000000000000	6.98431100000000	0.00000000000000	
2.51498800000000	-54.74149700000000	774.67169500000000	51.58675100000000	0.18043500000000	0.00000000000000	0.09551000000000	-11.02585100000000	79.03360400000000	9.68654400000000	0.43657900000000	0.00000000000000	-0.07459100000000	0.00000000000000	27.39966800000000	0.00000000000000	0.00000000000000	7.36658600000000	0.00000000000000	
2.51665500000000	-55.07518700000000	770.97102800000005	51.20443800000000	0.17972000000000	0.00000000000000	0.09548800000000	-10.87881600000000	84.82542800000000	9.99865000000000	0.43830300000000	0.00000000000000	-0.07490600000000	0.00000000000000	27.23614000000000	0.00000000000000	0.00000000000000	7.69277200000000	0.00000000000000	
2.51832600000000	-55.42246600000000	767.16854100000000	50.80244900000000	0.17900100000000	0.00000000000000	0.09546200000000	-10.58057000000000	90.44044400000000	10.22904900000000	0.43993000000000	0.00000000000000	-0.07520900000000	0.00000000000000	27.06958100000000	0.00000000000000	0.00000000000000	7.96632300000000	0.00000000000000	
2.51998600000000	-55.78312300000000	763.26478099999997	50.38096000000000	0.17827700000000	0.00000000000000	0.09542900000000	-10.14948200000000	95.92006600000001	10.38622700000000	0.44147200000000	0.00000000000000	-0.07550300000000	0.00000000000000	26.90005300000000	0.00000000000000	0.00000000000000	8.19237400000000	0.00000000000000	
2.52165900000000	-56.15687800000000	759.26024800000005	49.94016700000000	0.17755000000000	0.00000000000000	0.09539100000000	-9.60538200000000	101.31440499999999	10.47992100000000	0.44294000000000	0.00000000000000	-0.07578700000000	0.00000000000000	26.72761500000000	0.00000000000000	0.00000000000000	8.37704900000000	0.00000000000000	
